<svg width="20" height="20" viewBox="0 0 20 20" fill="none" xmlns="http://www.w3.org/2000/svg">
<rect width="20" height="20" rx="4" fill="#F70A51" fill-opacity="0.1"/>
<path d="M12.59 4.80811C11.5342 4.80811 10.5892 5.32144 10 6.10894C9.41085 5.32144 8.46585 4.80811 7.41002 4.80811C5.61919 4.80811 4.16669 6.26644 4.16669 8.06894C4.16669 8.76311 4.27752 9.40477 4.47002 9.99977C5.39169 12.9164 8.23252 14.6606 9.63835 15.1389C9.83669 15.2089 10.1634 15.2089 10.3617 15.1389C11.7675 14.6606 14.6084 12.9164 15.53 9.99977C15.7225 9.40477 15.8334 8.76311 15.8334 8.06894C15.8334 6.26644 14.3809 4.80811 12.59 4.80811Z" fill="#F70A51"/>
</svg>
