<svg width="38" height="20" viewBox="0 0 38 20" fill="none" xmlns="http://www.w3.org/2000/svg">
<path d="M0.91 13.59C0.723333 13.59 0.57 13.5467 0.45 13.46C0.336667 13.3733 0.263333 13.2567 0.23 13.11C0.203333 12.9633 0.233333 12.8 0.32 12.62L2.88 7.01C2.98667 6.78333 3.11333 6.62 3.26 6.52C3.40667 6.41333 3.57667 6.36 3.77 6.36C3.96333 6.36 4.13333 6.41333 4.28 6.52C4.42667 6.62 4.55 6.78333 4.65 7.01L7.23 12.62C7.31667 12.8 7.34667 12.9667 7.32 13.12C7.3 13.2667 7.23333 13.3833 7.12 13.47C7.00667 13.55 6.86 13.59 6.68 13.59C6.45333 13.59 6.27667 13.5367 6.15 13.43C6.03 13.3233 5.92333 13.1567 5.83 12.93L5.23 11.54L5.85 11.97H1.68L2.3 11.54L1.71 12.93C1.61 13.1633 1.50333 13.3333 1.39 13.44C1.28333 13.54 1.12333 13.59 0.91 13.59ZM3.75 8.1L2.47 11.15L2.2 10.76H5.33L5.06 11.15L3.77 8.1H3.75Z" fill="#2C3969" fill-opacity="0.3"/>
<path d="M15.5178 13.59C15.2711 13.59 15.0778 13.52 14.9378 13.38C14.8045 13.24 14.7378 13.0433 14.7378 12.79V10.77H14.0778C13.9445 10.77 13.8211 10.7867 13.7078 10.82C13.6011 10.8467 13.5045 10.8933 13.4178 10.96C13.3378 11.0267 13.2645 11.1233 13.1978 11.25L12.1778 13.12C12.0711 13.3133 11.9411 13.4433 11.7878 13.51C11.6345 13.5767 11.4811 13.5967 11.3278 13.57C11.1745 13.5433 11.0411 13.4767 10.9278 13.37C10.8145 13.2633 10.7445 13.1333 10.7178 12.98C10.6911 12.82 10.7278 12.6433 10.8278 12.45L11.3978 11.41C11.5378 11.1433 11.7145 10.94 11.9278 10.8C12.1478 10.6533 12.3978 10.58 12.6778 10.58H13.0578L13.0678 10.75C12.2811 10.75 11.6745 10.56 11.2478 10.18C10.8211 9.8 10.6078 9.27667 10.6078 8.61C10.6078 8.15667 10.7011 7.77 10.8878 7.45C11.0811 7.13 11.3611 6.88333 11.7278 6.71C12.0945 6.53667 12.5411 6.45 13.0678 6.45H15.4778C15.7445 6.45 15.9478 6.52 16.0878 6.66C16.2278 6.8 16.2978 7 16.2978 7.26V12.79C16.2978 13.0433 16.2311 13.24 16.0978 13.38C15.9645 13.52 15.7711 13.59 15.5178 13.59ZM13.3378 9.65H14.7378V7.66H13.3378C12.9311 7.66 12.6211 7.74333 12.4078 7.91C12.2011 8.07667 12.0978 8.32333 12.0978 8.65C12.0978 8.98333 12.2011 9.23333 12.4078 9.4C12.6211 9.56667 12.9311 9.65 13.3378 9.65Z" fill="#2C3969" fill-opacity="0.3"/>
<path d="M32.1666 3.33333V12.5M32.1666 12.5L28.8333 9.16667M32.1666 12.5L35.4999 9.16667" stroke="#2C3969" stroke-opacity="0.3" stroke-width="1.5" stroke-linecap="round" stroke-linejoin="round"/>
<path d="M23.8333 3.33366L23.8333 16.667M23.8333 16.667L20.5 13.3337M23.8333 16.667L27.1667 13.3337" stroke="#2C3969" stroke-opacity="0.3" stroke-width="1.5" stroke-linecap="round" stroke-linejoin="round"/>
</svg>
