<svg width="36" height="20" viewBox="0 0 36 20" fill="none" xmlns="http://www.w3.org/2000/svg">
<path d="M10.6668 4.5H5.3335C5.06016 4.5 4.8335 4.27333 4.8335 4C4.8335 3.72667 5.06016 3.5 5.3335 3.5H10.6668C10.9402 3.5 11.1668 3.72667 11.1668 4C11.1668 4.27333 10.9402 4.5 10.6668 4.5Z" fill="#2C3969" fill-opacity="0.3"/>
<path d="M10.6668 16.5H5.3335C5.06016 16.5 4.8335 16.2733 4.8335 16C4.8335 15.7267 5.06016 15.5 5.3335 15.5H10.6668C10.9402 15.5 11.1668 15.7267 11.1668 16C11.1668 16.2733 10.9402 16.5 10.6668 16.5Z" fill="#2C3969" fill-opacity="0.3"/>
<path d="M10.3335 5.33301H5.66683C4.1135 5.33301 3.3335 6.11301 3.3335 7.66634V12.333C3.3335 13.8863 4.1135 14.6663 5.66683 14.6663H10.3335C11.8868 14.6663 12.6668 13.8863 12.6668 12.333V7.66634C12.6668 6.11301 11.8868 5.33301 10.3335 5.33301ZM9.66683 10.833H7.66683C7.3935 10.833 7.16683 10.6063 7.16683 10.333V8.33301C7.16683 8.05967 7.3935 7.83301 7.66683 7.83301C7.94016 7.83301 8.16683 8.05967 8.16683 8.33301V9.83301H9.66683C9.94016 9.83301 10.1668 10.0597 10.1668 10.333C10.1668 10.6063 9.94016 10.833 9.66683 10.833Z" fill="#2C3969" fill-opacity="0.3"/>
<path d="M30.1668 3.33333L30.1668 12.5M30.1668 12.5L26.8335 9.16667M30.1668 12.5L33.5002 9.16667" stroke="#2C3969" stroke-opacity="0.3" stroke-width="1.5" stroke-linecap="round" stroke-linejoin="round"/>
<path d="M21.8333 3.33366L21.8333 16.667M21.8333 16.667L18.5 13.3337M21.8333 16.667L25.1667 13.3337" stroke="#2C3969" stroke-opacity="0.3" stroke-width="1.5" stroke-linecap="round" stroke-linejoin="round"/>
</svg>
