<svg width="37" height="20" viewBox="0 0 37 20" fill="none" xmlns="http://www.w3.org/2000/svg">
<path d="M10.7935 3.33301H5.20683C2.78016 3.33301 1.3335 4.77967 1.3335 7.20634V12.7863C1.3335 15.2197 2.78016 16.6663 5.20683 16.6663H10.7868C13.2135 16.6663 14.6602 15.2197 14.6602 12.793V7.20634C14.6668 4.77967 13.2202 3.33301 10.7935 3.33301ZM5.66683 6.25301C6.3535 6.25301 6.92016 6.81301 6.92016 7.50634C6.92016 8.19967 6.36016 8.75967 5.66683 8.75967C4.9735 8.75967 4.4135 8.18634 4.4135 7.49967C4.4135 6.81301 4.98016 6.25301 5.66683 6.25301ZM8.00016 14.7197C6.20683 14.7197 4.74683 13.2597 4.74683 11.4663C4.74683 10.9997 5.12683 10.613 5.5935 10.613H10.3935C10.8602 10.613 11.2402 10.993 11.2402 11.4663C11.2535 13.2597 9.7935 14.7197 8.00016 14.7197ZM10.3335 8.74634C9.64683 8.74634 9.08016 8.18634 9.08016 7.49301C9.08016 6.79967 9.64016 6.23967 10.3335 6.23967C11.0268 6.23967 11.5868 6.79967 11.5868 7.49301C11.5868 8.18634 11.0202 8.74634 10.3335 8.74634Z" fill="#2C3969" fill-opacity="0.3"/>
<path d="M31.1668 3.33333L31.1668 12.5M31.1668 12.5L27.8335 9.16667M31.1668 12.5L34.5002 9.16667" stroke="#2C3969" stroke-opacity="0.3" stroke-width="1.5" stroke-linecap="round" stroke-linejoin="round"/>
<path d="M22.8333 3.33366L22.8333 16.667M22.8333 16.667L19.5 13.3337M22.8333 16.667L26.1667 13.3337" stroke="#2C3969" stroke-opacity="0.3" stroke-width="1.5" stroke-linecap="round" stroke-linejoin="round"/>
</svg>
