<svg width="36" height="20" viewBox="0 0 36 20" fill="none" xmlns="http://www.w3.org/2000/svg">
<path d="M10.6667 4.5H5.33337C5.06004 4.5 4.83337 4.27333 4.83337 4C4.83337 3.72667 5.06004 3.5 5.33337 3.5H10.6667C10.94 3.5 11.1667 3.72667 11.1667 4C11.1667 4.27333 10.94 4.5 10.6667 4.5Z" fill="#2C3969" fill-opacity="0.3"/>
<path d="M10.6667 16.5H5.33337C5.06004 16.5 4.83337 16.2733 4.83337 16C4.83337 15.7267 5.06004 15.5 5.33337 15.5H10.6667C10.94 15.5 11.1667 15.7267 11.1667 16C11.1667 16.2733 10.94 16.5 10.6667 16.5Z" fill="#2C3969" fill-opacity="0.3"/>
<path d="M10.3334 5.33331H5.66671C4.11337 5.33331 3.33337 6.11331 3.33337 7.66665V12.3333C3.33337 13.8866 4.11337 14.6666 5.66671 14.6666H10.3334C11.8867 14.6666 12.6667 13.8866 12.6667 12.3333V7.66665C12.6667 6.11331 11.8867 5.33331 10.3334 5.33331ZM9.66671 10.8333H7.66671C7.39337 10.8333 7.16671 10.6066 7.16671 10.3333V8.33331C7.16671 8.05998 7.39337 7.83331 7.66671 7.83331C7.94004 7.83331 8.16671 8.05998 8.16671 8.33331V9.83331H9.66671C9.94004 9.83331 10.1667 10.06 10.1667 10.3333C10.1667 10.6066 9.94004 10.8333 9.66671 10.8333Z" fill="#2C3969" fill-opacity="0.3"/>
<path d="M30.1667 3.33333L30.1667 12.5M30.1667 12.5L26.8334 9.16667M30.1667 12.5L33.5 9.16667" stroke="#2C3969" stroke-opacity="0.3" stroke-width="1.5" stroke-linecap="round" stroke-linejoin="round"/>
<path d="M21.8333 3.33329L21.8333 16.6666M21.8333 16.6666L18.5 13.3333M21.8333 16.6666L25.1667 13.3333" stroke="#2C3969" stroke-opacity="0.3" stroke-width="1.5" stroke-linecap="round" stroke-linejoin="round"/>
</svg>
