<svg width="37" height="20" viewBox="0 0 37 20" fill="none" xmlns="http://www.w3.org/2000/svg">
<path d="M10.7934 3.33331H5.20671C2.78004 3.33331 1.33337 4.77998 1.33337 7.20665V12.7866C1.33337 15.22 2.78004 16.6666 5.20671 16.6666H10.7867C13.2134 16.6666 14.66 15.22 14.66 12.7933V7.20665C14.6667 4.77998 13.22 3.33331 10.7934 3.33331ZM5.66671 6.25331C6.35337 6.25331 6.92004 6.81331 6.92004 7.50665C6.92004 8.19998 6.36004 8.75998 5.66671 8.75998C4.97337 8.75998 4.41337 8.18665 4.41337 7.49998C4.41337 6.81331 4.98004 6.25331 5.66671 6.25331ZM8.00004 14.72C6.20671 14.72 4.74671 13.26 4.74671 11.4666C4.74671 11 5.12671 10.6133 5.59337 10.6133H10.3934C10.86 10.6133 11.24 10.9933 11.24 11.4666C11.2534 13.26 9.79337 14.72 8.00004 14.72ZM10.3334 8.74665C9.64671 8.74665 9.08004 8.18665 9.08004 7.49331C9.08004 6.79998 9.64004 6.23998 10.3334 6.23998C11.0267 6.23998 11.5867 6.79998 11.5867 7.49331C11.5867 8.18665 11.02 8.74665 10.3334 8.74665Z" fill="#2C3969" fill-opacity="0.3"/>
<path d="M31.1667 3.33333L31.1667 12.5M31.1667 12.5L27.8334 9.16667M31.1667 12.5L34.5 9.16667" stroke="#2C3969" stroke-opacity="0.3" stroke-width="1.5" stroke-linecap="round" stroke-linejoin="round"/>
<path d="M22.8333 3.33329L22.8333 16.6666M22.8333 16.6666L19.5 13.3333M22.8333 16.6666L26.1667 13.3333" stroke="#2C3969" stroke-opacity="0.3" stroke-width="1.5" stroke-linecap="round" stroke-linejoin="round"/>
</svg>
