<svg width="20" height="20" viewBox="0 0 20 20" fill="none" xmlns="http://www.w3.org/2000/svg">
<rect width="20" height="20" rx="4" fill="#F70A51" fill-opacity="0.1"/>
<path d="M12.59 4.80835C11.5341 4.80835 10.5891 5.32168 9.99996 6.10918C9.41079 5.32168 8.46579 4.80835 7.40996 4.80835C5.61913 4.80835 4.16663 6.26668 4.16663 8.06918C4.16663 8.76335 4.27746 9.40502 4.46996 10C5.39163 12.9167 8.23246 14.6608 9.63829 15.1392C9.83663 15.2092 10.1633 15.2092 10.3616 15.1392C11.7675 14.6608 14.6083 12.9167 15.53 10C15.7225 9.40502 15.8333 8.76335 15.8333 8.06918C15.8333 6.26668 14.3808 4.80835 12.59 4.80835Z" fill="#F70A51"/>
</svg>
